# xmcd CD database file
#
# Track frame offsets:
#	150
#	12163
#	23796
#	37309
#	53314
#	69507
#	81965
#	93979
#	108847
#	119983
#	132598
#	153543
#
# Disc length: 2217 seconds
#
# Revision: 0
# Processed by: cddbd v1.5.2PL0 Copyright (c) Steve Scherf et al.
# Submitted via: ACXtractor (MTCDDB.DLL V2003.12.21)
#
DISCID=9f08a70c
DTITLE=Waddo and Charley - Down a Different Track
DYEAR=2011
DGENRE=Country
TTITLE0=Imagine/Waddo and Charley
TTITLE1=Four Strong Winds/ Waddo and Charley
TTITLE2=The Rose/ Waddo and Charley
TTITLE3=The Cowboy Rides Away
TTITLE4=Twinkle Twinkle Lucky Star
TTITLE5=Working Class Man/Waddo and Charley
TTITLE6=Bir Fella Wadumbah/ Waddo and Charley
TTITLE7=Wind Beneath My Wings
TTITLE8=Whipe Out/ Waddo and Charley
TTITLE9=Twlight Zone/ Waddo and Charley
TTITLE10=Silver Wings
TTITLE11=Guitar Boogie/ Whaddo and Charley
EXTD=ID3G:   2 YEAR: 2011
EXTT0=
EXTT1=
EXTT2=
EXTT3=
EXTT4=
EXTT5=
EXTT6=
EXTT7=
EXTT8=
EXTT9=
EXTT10=
EXTT11=
PLAYORDER=
